<svg width="10" height="10" viewBox="0 0 10 10" fill="none" xmlns="http://www.w3.org/2000/svg">
<path d="M3.5 0.253906H6.5L7.5 1.25391H9.5C9.63261 1.25391 9.75979 1.30658 9.85355 1.40035C9.94732 1.49412 10 1.6213 10 1.75391V8.75391C10 8.88651 9.94732 9.01369 9.85355 9.10746C9.75979 9.20123 9.63261 9.25391 9.5 9.25391H0.5C0.367392 9.25391 0.240215 9.20123 0.146447 9.10746C0.0526784 9.01369 0 8.88651 0 8.75391V1.75391C0 1.6213 0.0526784 1.49412 0.146447 1.40035C0.240215 1.30658 0.367392 1.25391 0.5 1.25391H2.5L3.5 0.253906ZM5 8.25391C5.79565 8.25391 6.55871 7.93784 7.12132 7.37523C7.68393 6.81262 8 6.04956 8 5.25391C8 4.45826 7.68393 3.6952 7.12132 3.13259C6.55871 2.56998 5.79565 2.25391 5 2.25391C4.20435 2.25391 3.44129 2.56998 2.87868 3.13259C2.31607 3.6952 2 4.45826 2 5.25391C2 6.04956 2.31607 6.81262 2.87868 7.37523C3.44129 7.93784 4.20435 8.25391 5 8.25391ZM5 7.25391C4.46957 7.25391 3.96086 7.04319 3.58579 6.66812C3.21071 6.29305 3 5.78434 3 5.25391C3 4.72347 3.21071 4.21477 3.58579 3.83969C3.96086 3.46462 4.46957 3.25391 5 3.25391C5.53043 3.25391 6.03914 3.46462 6.41421 3.83969C6.78929 4.21477 7 4.72347 7 5.25391C7 5.78434 6.78929 6.29305 6.41421 6.66812C6.03914 7.04319 5.53043 7.25391 5 7.25391Z" fill="#6A737D"/>
</svg>
