<svg width="21" height="21" viewBox="0 0 21 21" fill="none" xmlns="http://www.w3.org/2000/svg">
<path fill-rule="evenodd" clip-rule="evenodd" d="M10.5003 1.34082C5.20547 1.34082 0.916931 5.62936 0.916931 10.9242C0.916931 15.1648 3.66016 18.7465 7.46954 20.0163C7.9487 20.1002 8.12839 19.8127 8.12839 19.5611C8.12839 19.3335 8.11641 18.5788 8.11641 17.7762C5.7086 18.2195 5.08568 17.1893 4.89401 16.6502C4.7862 16.3747 4.31901 15.5242 3.91172 15.2965C3.57631 15.1169 3.09714 14.6736 3.89974 14.6617C4.65443 14.6497 5.19349 15.3564 5.37318 15.6439C6.23568 17.0934 7.61329 16.6861 8.16433 16.4346C8.24818 15.8117 8.49974 15.3924 8.77527 15.1528C6.64297 14.9132 4.41485 14.0867 4.41485 10.421C4.41485 9.37884 4.7862 8.51634 5.39714 7.84551C5.30131 7.60592 4.96589 6.62363 5.49297 5.30592C5.49297 5.30592 6.29558 5.05436 8.12839 6.28822C8.89506 6.07259 9.70964 5.96478 10.5242 5.96478C11.3388 5.96478 12.1534 6.07259 12.9201 6.28822C14.7529 5.04238 15.5555 5.30592 15.5555 5.30592C16.0826 6.62363 15.7471 7.60592 15.6513 7.84551C16.2622 8.51634 16.6336 9.36686 16.6336 10.421C16.6336 14.0986 14.3935 14.9132 12.2612 15.1528C12.6086 15.4523 12.9081 16.0273 12.9081 16.9257C12.9081 18.2075 12.8961 19.2377 12.8961 19.5611C12.8961 19.8127 13.0758 20.1122 13.555 20.0163C17.3404 18.7465 20.0836 15.1528 20.0836 10.9242C20.0836 5.62936 15.7951 1.34082 10.5003 1.34082Z" fill="#1B1F23"/>
</svg>
