<svg width="20" height="21" viewBox="0 0 20 21" fill="none" xmlns="http://www.w3.org/2000/svg">
<path d="M18.1712 8.40303H17.5V8.36845H9.99999V11.7018H14.7096C14.0225 13.6422 12.1762 15.0351 9.99999 15.0351C7.23874 15.0351 4.99999 12.7964 4.99999 10.0351C4.99999 7.27387 7.23874 5.03512 9.99999 5.03512C11.2746 5.03512 12.4342 5.51595 13.3171 6.30137L15.6742 3.94428C14.1858 2.5572 12.195 1.70178 9.99999 1.70178C5.39791 1.70178 1.66666 5.43303 1.66666 10.0351C1.66666 14.6372 5.39791 18.3685 9.99999 18.3685C14.6021 18.3685 18.3333 14.6372 18.3333 10.0351C18.3333 9.47637 18.2758 8.93095 18.1712 8.40303Z" fill="#FFC107"/>
<path d="M2.62778 6.15636L5.36569 8.16428C6.10653 6.33012 7.90069 5.03512 10.0003 5.03512C11.2749 5.03512 12.4344 5.51595 13.3174 6.30136L15.6744 3.94428C14.1861 2.5572 12.1953 1.70178 10.0003 1.70178C6.79944 1.70178 4.02361 3.50887 2.62778 6.15636Z" fill="#FF3D00"/>
<path d="M10.0001 18.3685C12.1526 18.3685 14.1085 17.5448 15.5872 16.2052L13.0081 14.0227C12.1433 14.6804 11.0866 15.0361 10.0001 15.0352C7.83264 15.0352 5.99222 13.6531 5.29889 11.7244L2.58139 13.8181C3.96056 16.5169 6.76139 18.3685 10.0001 18.3685Z" fill="#4CAF50"/>
<path d="M18.1713 8.40311H17.5V8.36853H10V11.7019H14.7096C14.3809 12.6254 13.7889 13.4324 13.0067 14.0231L13.0079 14.0223L15.5871 16.2048C15.4046 16.3706 18.3333 14.2019 18.3333 10.0352C18.3333 9.47645 18.2758 8.93103 18.1713 8.40311Z" fill="#1976D2"/>
</svg>
