<svg width="18" height="18" viewBox="0 0 18 18" fill="none" xmlns="http://www.w3.org/2000/svg">
<path d="M14.026 12.5578L17.5952 16.1261L16.416 17.3053L12.8477 13.7361C11.52 14.8005 9.86854 15.3794 8.16687 15.377C4.02687 15.377 0.66687 12.017 0.66687 7.87695C0.66687 3.73695 4.02687 0.376953 8.16687 0.376953C12.3069 0.376953 15.6669 3.73695 15.6669 7.87695C15.6693 9.57862 15.0904 11.2301 14.026 12.5578ZM12.3544 11.9395C13.412 10.8519 14.0026 9.39398 14.0002 7.87695C14.0002 4.65362 11.3894 2.04362 8.16687 2.04362C4.94354 2.04362 2.33354 4.65362 2.33354 7.87695C2.33354 11.0995 4.94354 13.7103 8.16687 13.7103C9.6839 13.7127 11.1418 13.122 12.2294 12.0645L12.3544 11.9395Z" fill="#959DA5"/>
</svg>
